<svg x="0" y="0" width="48" height="48" version="1.1" xmlns="http://www.w3.org/2000/svg" xmlns:xlink="http://www.w3.org/1999/xlink"><defs><linearGradient x1="15.0699" y1="6.1398" x2="33.95598" y2="42.88608" gradientUnits="userSpaceOnUse" id="color-1"><stop offset="0" stop-color="#000000" stop-opacity="0.45"></stop><stop offset="1" stop-color="#000000" stop-opacity="0"></stop></linearGradient><filter id="dropshadow"><feColorMatrix type="matrix" values="0 0 0 0 .05  0 0 0 0 .15  0 0 0 0 .1  0 0 0 .8 0"></feColorMatrix> <feOffset dx="0" dy="1"></feOffset> <feGaussianBlur stdDeviation="1"></feGaussianBlur> <feComposite in="SourceGraphic"></feComposite></filter></defs><g fill="none" stroke="none" stroke-width="none" stroke-linecap="butt" stroke-linejoin="miter" stroke-miterlimit="none" stroke-dasharray="" stroke-dashoffset="0" font-family="none" font-weight="normal" font-size="none" text-anchor="start" mix-blend-mode="normal"><g fill="#000000" stroke="none" stroke-width="1" stroke-miterlimit="4" font-family="&quot;Open Sans&quot;, sans-serif" font-size="14"></g><path d="M5,45c-1.10457,0 -2,-0.89543 -2,-2l0,-38c0,-1.10457 0.89543,-2 2,-2l38,0c1.10457,0 2,0.89543 2,2l0,38c0,1.10457 -0.89543,2 -2,2z" fill-opacity="0" fill="#262d4e" stroke-width="1" stroke-miterlimit="10" font-family="sans-serif" font-size="12" filter="url(#dropshadow)"></path><path d="M32.9301,6.1398l1.02588,1.02588l-6.63114,13.26228l5.60526,0l1.02588,1.02588l-12.50214,21.43224l-1.02588,-1.02588l0.00001,-0.00001l-0.00001,-0.00001l0,-15.04829l-4.33218,0l-1.02588,-1.02588l0,-19.64621z M16.09578,25.78601c0,0 4.33218,0 4.33218,0l1.02588,1.02588l0,13.28965l10.87783,-18.64771c0,0 -5.51977,0 -5.51977,0l-1.02588,-1.02588c0,0 6.63114,-13.26228 6.63114,-13.26228l-16.32138,0z" fill="url(#color-1)" stroke-width="1" stroke-miterlimit="10" font-family="sans-serif" font-size="12"></path><path d="M32.9301,6.1398l-7.14408,14.28816l7.14408,0l-12.50214,21.43224l0,-16.07418l-5.35806,0l0,-19.64622z" fill="#ff9800" stroke="none" stroke-width="0" stroke-miterlimit="4" font-family="&quot;Open Sans&quot;, sans-serif" font-size="14"></path></g></svg>